#define info_01_width 8
#define info_01_height 8
static unsigned char info_01_bits[] = {
   0x7e, 0xff, 0xff, 0xff, 0x7e, 0x18, 0x08, 0x00 };
