#define bullet_width 8
#define bullet_height 8
static unsigned char bullet_bits[] = {
   0x04, 0x0c, 0x18, 0x30, 0x30, 0x18, 0x0c, 0x04 };
